<svg width="188" height="188" viewBox="0 0 188 188" fill="none" xmlns="http://www.w3.org/2000/svg">
<circle cx="94" cy="94" r="94" fill="#6BD7DF"/>
<path fill-rule="evenodd" clip-rule="evenodd" d="M128.879 76.8693C129.676 77.6663 130.124 78.7471 130.124 79.8741C130.124 81.001 129.676 82.0818 128.879 82.8788L88.5043 123.254C87.7073 124.051 86.6265 124.498 85.4995 124.498C84.3726 124.498 83.2918 124.051 82.4948 123.254L63.3698 104.129C62.5956 103.327 62.1672 102.254 62.1769 101.139C62.1866 100.025 62.6336 98.9591 63.4216 98.1711C64.2095 97.3831 65.2755 96.9362 66.3898 96.9265C67.5042 96.9168 68.5777 97.3452 69.3793 98.1193L85.4995 114.24L122.87 76.8693C123.667 76.0726 124.748 75.625 125.875 75.625C127.001 75.625 128.082 76.0726 128.879 76.8693Z" fill="#106285"/>
</svg>
