<svg width="35" height="35" viewBox="0 0 55 55" fill="none" xmlns="http://www.w3.org/2000/svg">
<g clip-path="url(#clip0_51_253)">
<path d="M51.3084 46.7811C49.6484 46.6302 48.1393 46.0266 46.7812 44.9702C46.0267 44.2157 44.9703 43.763 43.763 43.763C42.7067 43.763 41.4994 44.2157 40.7449 44.9702C39.3867 46.1775 37.7268 46.6302 36.0668 46.6302C34.2559 46.6302 32.445 46.0266 31.0869 44.9702C29.276 43.3103 26.5596 43.3103 24.8997 44.9702C23.5415 46.1775 21.7306 46.7811 19.7688 46.7811C17.9579 46.7811 16.298 46.1775 14.9398 44.9702C14.0344 44.2157 12.978 43.763 11.9217 43.763C10.7144 43.763 9.35624 44.2157 8.4508 44.9702C6.94173 46.1775 4.97994 46.7811 3.16905 46.6302V43.763C4.37631 43.763 5.73447 43.3103 6.63991 42.4048C8.14898 41.1976 9.95987 40.5939 11.7708 40.7448C13.5816 40.7448 15.3925 41.3485 16.7507 42.5557C18.5616 44.2157 21.2779 44.2157 23.0888 42.5557C25.956 40.1412 30.1814 40.1412 32.8977 42.5557C34.7086 44.2157 37.4249 44.2157 39.0849 42.5557C40.4431 41.3485 42.254 40.7448 44.0649 40.7448C45.7248 40.7448 47.3848 41.3485 48.5921 42.5557C49.4975 43.3103 49.7993 43.763 51.3084 43.763V46.7811Z" fill="white"/>
<path d="M6.18719 39.5376C7.09263 38.7831 7.99808 38.3304 9.05443 38.0286V34.7086C9.05443 33.8032 9.65805 33.0486 10.5635 33.0486H48.2903L42.8576 37.7267H43.1594C44.3667 37.7267 45.5739 38.0286 46.4794 38.4813L50.252 35.1613L50.5539 34.8595C51.6102 33.5014 51.3084 31.6905 49.9502 30.6341C49.6484 30.3323 48.8939 30.1814 48.2903 30.1814H10.5635C7.99808 30.1814 6.03629 32.1432 6.03629 34.7086L6.18719 39.5376Z" fill="white"/>
<path d="M22.4851 28.5217H13.4307C11.7707 28.5217 10.4126 27.1635 10.4126 25.5036C10.4126 24.8999 10.5635 24.2963 11.0162 23.6927L17.2034 14.9401C18.1088 13.5819 20.0706 13.2801 21.4288 14.1855C22.1833 14.7892 22.6361 15.6946 22.6361 16.6V28.5217H22.4851Z" fill="white"/>
<path d="M36.6704 28.5213H24.1451V9.65791C24.1451 7.99793 25.5033 6.63977 27.1633 6.63977C28.2196 6.63977 29.1251 7.2434 29.7287 8.14884L39.2358 23.8432C40.1413 25.3522 39.5376 27.1631 38.1795 27.9177C37.7268 28.2195 37.1231 28.3704 36.6704 28.5213Z" fill="white"/>
</g>
<defs>
<clipPath id="clip0_51_253">
<rect width="54.3265" height="54.3265" fill="white"/>
</clipPath>
</defs>
</svg>
